<svg width="80" height="24" viewBox="0 0 80 24" fill="none" xmlns="http://www.w3.org/2000/svg">
<path fill-rule="evenodd" clip-rule="evenodd" d="M0 8.13525L6.74901 16.6489L0 22.2414V8.13525Z" fill="#F15A23"/>
<path fill-rule="evenodd" clip-rule="evenodd" d="M2.71631 22.2412L7.7946 17.9929L11.3046 22.2412H2.71631Z" fill="#F15A23"/>
<path fill-rule="evenodd" clip-rule="evenodd" d="M0 3.5797L1.76124 5.80759L9.00279 14.8565L11.3493 12.9879C11.3493 12.9879 9.40129 10.6945 8.09326 8.13522C5.53591 3.13161 7.34645 0.0163574 7.34645 0.0163574H0V3.5797Z" fill="#F15A23"/>
<path fill-rule="evenodd" clip-rule="evenodd" d="M10.0349 16.2535L12.4247 14.2795C12.4247 14.2795 14.7071 17.284 17.3536 17.9931C20.8217 18.9224 22.3572 16.6489 22.3572 16.6489V22.2414H14.7398L16.4575 20.7563C16.4575 20.7563 15.5613 21.3538 13.3695 19.8356C12.0759 18.9396 10.0349 16.2535 10.0349 16.2535Z" fill="#F15A23"/>
<path fill-rule="evenodd" clip-rule="evenodd" d="M10.2548 0C10.2548 0 9.49239 1.03855 10.0351 3.57963C10.6151 6.29571 12.9219 9.17037 12.9166 9.10601C12.9166 9.10601 13.0649 6.2516 14.7399 4.57654C18.3104 1.00611 22.3574 3.13155 22.3574 3.13155V0.0162955L10.2548 0Z" fill="#F15A23"/>
<path fill-rule="evenodd" clip-rule="evenodd" d="M22.3573 6.89546C22.3573 6.89546 20.0993 4.96143 18.1363 4.96143C15.6251 4.96143 14.2544 7.12941 14.2544 8.70206C14.2544 10.9927 15.3539 12.2655 16.4575 13.3691C18.0434 14.955 19.9728 16.6655 22.3573 15.2888C22.3573 12.6833 22.3573 6.89546 22.3573 6.89546Z" fill="#F15A23"/>
<path fill-rule="evenodd" clip-rule="evenodd" d="M48.0718 0.23291H53.4C53.4 0.23291 58.12 7.37978 60.4397 10.3326C62.7594 13.2854 65.2563 16.6487 65.2563 16.6487C65.2563 16.6487 65.2563 6.89542 65.2563 1.83345C65.2563 1.19359 63.5763 0.23291 63.5763 0.23291H69.7205C69.7205 0.23291 67.7044 1.0612 67.7044 1.83345C67.7044 8.13507 67.7044 23.3861 67.7044 23.3861C67.7044 23.3861 65.7699 22.3134 63.5763 19.7644C61.1116 16.9003 52.3439 5.33756 52.3439 5.33756C52.3439 5.33756 52.3439 16.2533 52.3439 20.314C52.3439 21.081 54.024 22.2412 54.024 22.2412H48.0718C48.0718 22.2412 49.7038 21.0716 49.7038 20.314C49.7038 14.8563 49.7038 6.89542 49.7038 1.83345C49.7038 1.15332 48.0718 0.23291 48.0718 0.23291Z" fill="#005E6A"/>
<path fill-rule="evenodd" clip-rule="evenodd" d="M73.1616 0.23291H80C80 0.23291 78.1638 1.10269 78.1638 1.83345C78.1638 6.89542 78.1638 15.2888 78.1638 20.314C78.1638 21.1126 80 22.2412 80 22.2412H73.1616C73.1616 22.2412 74.8712 21.0869 74.8712 20.314C74.8712 14.2793 74.8712 6.89542 74.8712 1.83345C74.8712 1.13088 73.1616 0.23291 73.1616 0.23291Z" fill="#005E6A"/>
<path fill-rule="evenodd" clip-rule="evenodd" d="M27.9526 0.23291C27.9526 0.23291 29.7255 1.1169 29.7255 1.83345C29.7255 6.89542 29.7255 14.2793 29.7255 20.314C29.7255 21.0996 27.9526 22.2412 27.9526 22.2412C27.9526 22.2412 36.8096 22.2412 38.0835 22.2412C38.7167 22.2412 45.8083 21.0816 45.8083 15.6142C45.8083 10.1469 40.2996 9.63497 40.2996 9.63497C40.2996 9.63497 43.6555 8.70203 43.6555 4.96139C43.6555 0.929408 38.7167 0.23291 38.0835 0.23291C36.7677 0.23291 27.9526 0.23291 27.9526 0.23291ZM33.3347 9.27265V2.39218C33.3347 2.39218 36.2712 2.39218 37.4503 2.39218C38.0835 2.39218 40.2996 3.13146 40.2996 5.8743C40.2996 8.13507 38.0835 9.27265 37.4503 9.27265C36.0148 9.27265 33.3347 9.27265 33.3347 9.27265ZM33.3347 11.0772C33.3347 11.0772 37.4503 11.0772 38.0835 11.0772C38.7167 11.0772 42.4525 12.0476 42.4525 15.2888C42.4525 18.5933 38.7167 19.7644 38.0835 19.7644C37.4503 19.7644 33.3347 19.7644 33.3347 19.7644V11.0772Z" fill="#005E6A"/>
</svg>
